<svg width="410" height="77" viewBox="0 0 410 77" fill="none" xmlns="http://www.w3.org/2000/svg">
<rect width="410" height="77" rx="12" fill="#3A3A3A"/>
<path d="M19 23C19 22.4696 19.2107 21.9609 19.5858 21.5858C19.9609 21.2107 20.4696 21 21 21H35C35.5304 21 36.0391 21.2107 36.4142 21.5858C36.7893 21.9609 37 22.4696 37 23M19 23V33C19 33.5304 19.2107 34.0391 19.5858 34.4142C19.9609 34.7893 20.4696 35 21 35H35C35.5304 35 36.0391 34.7893 36.4142 34.4142C36.7893 34.0391 37 33.5304 37 33V23M19 23L28 29L37 23" stroke="white" stroke-width="2" stroke-linecap="round" stroke-linejoin="round"/>
<path d="M57.3395 24.4531C57.2732 23.8329 56.9938 23.3499 56.5014 23.0043C56.0137 22.6586 55.3793 22.4858 54.598 22.4858C54.0488 22.4858 53.5777 22.5687 53.1847 22.7344C52.7917 22.9001 52.491 23.125 52.2827 23.4091C52.0743 23.6932 51.9678 24.0175 51.9631 24.3821C51.9631 24.6851 52.0317 24.9479 52.169 25.1705C52.3111 25.393 52.5028 25.5824 52.7443 25.7386C52.9858 25.8902 53.2533 26.018 53.5469 26.1222C53.8404 26.2263 54.1364 26.3139 54.4347 26.3849L55.7983 26.7259C56.3475 26.8537 56.8755 27.0265 57.3821 27.2443C57.8935 27.4621 58.3504 27.7367 58.7528 28.0682C59.16 28.3996 59.482 28.7997 59.7188 29.2685C59.9555 29.7372 60.0739 30.2865 60.0739 30.9162C60.0739 31.7685 59.8561 32.5189 59.4205 33.1676C58.9848 33.8116 58.3551 34.3158 57.5312 34.6804C56.7121 35.0402 55.7202 35.2202 54.5554 35.2202C53.4238 35.2202 52.4413 35.045 51.608 34.6946C50.7794 34.3442 50.1307 33.8329 49.6619 33.1605C49.1979 32.4882 48.947 31.669 48.9091 30.7031H51.5014C51.5393 31.2098 51.6955 31.6312 51.9702 31.9673C52.2448 32.3035 52.6023 32.5545 53.0426 32.7202C53.4877 32.8859 53.9848 32.9688 54.5341 32.9688C55.107 32.9688 55.6089 32.8835 56.0398 32.7131C56.4754 32.5379 56.8163 32.2964 57.0625 31.9886C57.3087 31.6761 57.4342 31.3116 57.4389 30.8949C57.4342 30.5161 57.3229 30.2036 57.1051 29.9574C56.8873 29.7064 56.5819 29.4981 56.1889 29.3324C55.8007 29.1619 55.3461 29.0104 54.8253 28.8778L53.1705 28.4517C51.9725 28.1439 51.0256 27.6776 50.3295 27.0526C49.6383 26.4228 49.2926 25.5871 49.2926 24.5455C49.2926 23.6884 49.5246 22.938 49.9886 22.294C50.4574 21.6501 51.0942 21.1506 51.8991 20.7955C52.7041 20.4356 53.6155 20.2557 54.6335 20.2557C55.6657 20.2557 56.5701 20.4356 57.3466 20.7955C58.1278 21.1506 58.741 21.6454 59.1861 22.2798C59.6312 22.9096 59.8608 23.634 59.875 24.4531H57.3395ZM61.4229 20.4545H64.6474L68.9656 30.9943H69.136L73.4542 20.4545H76.6786V35H74.1502V25.0071H74.0153L69.9954 34.9574H68.1062L64.0863 24.9858H63.9513V35H61.4229V20.4545ZM86.4528 24.4531C86.3865 23.8329 86.1071 23.3499 85.6147 23.0043C85.127 22.6586 84.4925 22.4858 83.7113 22.4858C83.1621 22.4858 82.6909 22.5687 82.2979 22.7344C81.9049 22.9001 81.6043 23.125 81.396 23.4091C81.1876 23.6932 81.0811 24.0175 81.0763 24.3821C81.0763 24.6851 81.145 24.9479 81.2823 25.1705C81.4244 25.393 81.6161 25.5824 81.8576 25.7386C82.0991 25.8902 82.3666 26.018 82.6602 26.1222C82.9537 26.2263 83.2496 26.3139 83.5479 26.3849L84.9116 26.7259C85.4608 26.8537 85.9888 27.0265 86.4954 27.2443C87.0067 27.4621 87.4637 27.7367 87.8661 28.0682C88.2733 28.3996 88.5953 28.7997 88.832 29.2685C89.0688 29.7372 89.1871 30.2865 89.1871 30.9162C89.1871 31.7685 88.9693 32.5189 88.5337 33.1676C88.0981 33.8116 87.4684 34.3158 86.6445 34.6804C85.8254 35.0402 84.8335 35.2202 83.6687 35.2202C82.5371 35.2202 81.5546 35.045 80.7212 34.6946C79.8926 34.3442 79.244 33.8329 78.7752 33.1605C78.3112 32.4882 78.0603 31.669 78.0224 30.7031H80.6147C80.6526 31.2098 80.8088 31.6312 81.0835 31.9673C81.3581 32.3035 81.7156 32.5545 82.1559 32.7202C82.601 32.8859 83.0981 32.9688 83.6474 32.9688C84.2203 32.9688 84.7222 32.8835 85.1531 32.7131C85.5887 32.5379 85.9296 32.2964 86.1758 31.9886C86.422 31.6761 86.5475 31.3116 86.5522 30.8949C86.5475 30.5161 86.4362 30.2036 86.2184 29.9574C86.0006 29.7064 85.6952 29.4981 85.3022 29.3324C84.9139 29.1619 84.4594 29.0104 83.9386 28.8778L82.2837 28.4517C81.0858 28.1439 80.1388 27.6776 79.4428 27.0526C78.7515 26.4228 78.4059 25.5871 78.4059 24.5455C78.4059 23.6884 78.6379 22.938 79.1019 22.294C79.5707 21.6501 80.2075 21.1506 81.0124 20.7955C81.8174 20.4356 82.7288 20.2557 83.7468 20.2557C84.779 20.2557 85.6834 20.4356 86.4599 20.7955C87.2411 21.1506 87.8543 21.6454 88.2994 22.2798C88.7444 22.9096 88.9741 23.634 88.9883 24.4531H86.4528ZM97.5227 35.2202C96.8314 35.2202 96.2088 35.0971 95.6548 34.8509C95.1056 34.5999 94.67 34.2306 94.348 33.7429C94.0308 33.2552 93.8722 32.6539 93.8722 31.9389C93.8722 31.3234 93.9858 30.8144 94.2131 30.4119C94.4403 30.0095 94.7505 29.6875 95.1435 29.446C95.5365 29.2045 95.9792 29.0223 96.4716 28.8991C96.9688 28.7713 97.4825 28.679 98.0128 28.6222C98.652 28.5559 99.1705 28.4967 99.5682 28.4446C99.9659 28.3878 100.255 28.3026 100.435 28.1889C100.619 28.0705 100.712 27.8883 100.712 27.642V27.5994C100.712 27.0644 100.553 26.6501 100.236 26.3565C99.9186 26.063 99.4616 25.9162 98.8651 25.9162C98.2353 25.9162 97.7358 26.0535 97.3665 26.3281C97.0019 26.6027 96.7557 26.9271 96.6278 27.3011L94.2273 26.9602C94.4167 26.2973 94.7292 25.7434 95.1648 25.2983C95.6004 24.8485 96.133 24.5123 96.7628 24.2898C97.3925 24.0625 98.0885 23.9489 98.8509 23.9489C99.3764 23.9489 99.8996 24.0104 100.42 24.1335C100.941 24.2566 101.417 24.4602 101.848 24.7443C102.279 25.0237 102.625 25.4048 102.885 25.8878C103.15 26.3707 103.283 26.9744 103.283 27.6989V35H100.811V33.5014H100.726C100.57 33.8045 100.349 34.0885 100.065 34.3537C99.786 34.6141 99.4332 34.8248 99.0071 34.9858C98.5857 35.142 98.0909 35.2202 97.5227 35.2202ZM98.1903 33.331C98.7064 33.331 99.1539 33.2292 99.5327 33.0256C99.9115 32.8172 100.203 32.5426 100.406 32.2017C100.615 31.8608 100.719 31.4891 100.719 31.0866V29.8011C100.638 29.8674 100.501 29.929 100.307 29.9858C100.117 30.0426 99.9044 30.0923 99.6676 30.1349C99.4309 30.1776 99.1965 30.2154 98.9645 30.2486C98.7325 30.2817 98.5313 30.3101 98.3608 30.3338C97.9773 30.3859 97.634 30.4711 97.331 30.5895C97.0279 30.7079 96.7888 30.8736 96.6136 31.0866C96.4384 31.295 96.3509 31.5649 96.3509 31.8963C96.3509 32.3698 96.5237 32.7273 96.8693 32.9688C97.215 33.2102 97.6553 33.331 98.1903 33.331ZM107.439 20.4545V35H104.868V20.4545H107.439ZM113.912 35.2131C112.819 35.2131 111.874 34.9858 111.078 34.5312C110.288 34.072 109.679 33.4233 109.253 32.5852C108.827 31.7424 108.614 30.7505 108.614 29.6094C108.614 28.4872 108.827 27.5024 109.253 26.6548C109.684 25.8026 110.285 25.1397 111.057 24.6662C111.829 24.188 112.736 23.9489 113.777 23.9489C114.45 23.9489 115.084 24.0578 115.681 24.2756C116.282 24.4886 116.812 24.8201 117.272 25.2699C117.736 25.7197 118.1 26.2926 118.365 26.9886C118.631 27.6799 118.763 28.5038 118.763 29.4602V30.2486H109.821V28.5156H116.299C116.294 28.0232 116.187 27.5852 115.979 27.2017C115.771 26.8134 115.48 26.508 115.105 26.2855C114.736 26.063 114.305 25.9517 113.813 25.9517C113.287 25.9517 112.826 26.0795 112.428 26.3352C112.03 26.5862 111.72 26.9176 111.498 27.3295C111.28 27.7367 111.168 28.1842 111.164 28.6719V30.1847C111.164 30.8191 111.28 31.3636 111.512 31.8182C111.744 32.268 112.068 32.6136 112.485 32.8551C112.901 33.0919 113.389 33.2102 113.948 33.2102C114.322 33.2102 114.66 33.1581 114.963 33.054C115.266 32.9451 115.529 32.7865 115.752 32.5781C115.974 32.3698 116.142 32.1117 116.256 31.804L118.657 32.0739C118.505 32.7083 118.216 33.2623 117.79 33.7358C117.369 34.2045 116.829 34.5691 116.171 34.8295C115.513 35.0852 114.76 35.2131 113.912 35.2131ZM119.938 35V24.0909H122.431V25.9091H122.545C122.744 25.2794 123.085 24.794 123.567 24.4531C124.055 24.1075 124.612 23.9347 125.237 23.9347C125.379 23.9347 125.537 23.9418 125.712 23.956C125.892 23.9654 126.041 23.982 126.16 24.0057V26.3707C126.051 26.3329 125.878 26.2997 125.641 26.2713C125.409 26.2382 125.184 26.2216 124.967 26.2216C124.498 26.2216 124.076 26.3234 123.702 26.527C123.333 26.7259 123.042 27.0028 122.829 27.358C122.616 27.7131 122.509 28.1226 122.509 28.5866V35H119.938ZM132.901 24.0909V26.0795H126.63V24.0909H132.901ZM128.178 21.4773H130.749V31.7188C130.749 32.0644 130.801 32.3295 130.906 32.5142C131.014 32.6941 131.156 32.8172 131.332 32.8835C131.507 32.9498 131.701 32.983 131.914 32.983C132.075 32.983 132.222 32.9711 132.354 32.9474C132.492 32.9238 132.596 32.9025 132.667 32.8835L133.1 34.8935C132.963 34.9408 132.766 34.9929 132.511 35.0497C132.26 35.1065 131.952 35.1397 131.587 35.1491C130.943 35.1681 130.363 35.071 129.847 34.858C129.331 34.6402 128.922 34.304 128.619 33.8494C128.32 33.3949 128.174 32.8267 128.178 32.1449V21.4773ZM142.517 26.9744L140.174 27.2301C140.107 26.9934 139.991 26.7708 139.826 26.5625C139.665 26.3542 139.447 26.1861 139.172 26.0582C138.898 25.9304 138.561 25.8665 138.164 25.8665C137.629 25.8665 137.179 25.9825 136.814 26.2145C136.454 26.4465 136.277 26.7472 136.282 27.1165C136.277 27.4337 136.393 27.6918 136.63 27.8906C136.871 28.0895 137.269 28.2528 137.823 28.3807L139.684 28.7784C140.716 29.0009 141.483 29.3537 141.985 29.8366C142.491 30.3196 142.747 30.9517 142.752 31.733C142.747 32.4195 142.546 33.0256 142.148 33.5511C141.755 34.072 141.208 34.4792 140.507 34.7727C139.807 35.0663 139.002 35.2131 138.093 35.2131C136.757 35.2131 135.683 34.9337 134.868 34.375C134.054 33.8116 133.569 33.0279 133.412 32.0241L135.919 31.7827C136.033 32.2751 136.275 32.6468 136.644 32.8977C137.013 33.1487 137.494 33.2741 138.086 33.2741C138.696 33.2741 139.186 33.1487 139.556 32.8977C139.93 32.6468 140.117 32.3366 140.117 31.9673C140.117 31.6548 139.996 31.3968 139.755 31.1932C139.518 30.9896 139.149 30.8333 138.647 30.7244L136.786 30.3338C135.739 30.116 134.965 29.7491 134.463 29.233C133.962 28.7121 133.713 28.054 133.718 27.2585C133.713 26.5862 133.895 26.0038 134.265 25.5114C134.639 25.0142 135.157 24.6307 135.82 24.3608C136.488 24.0862 137.257 23.9489 138.128 23.9489C139.407 23.9489 140.413 24.2211 141.147 24.7656C141.885 25.3101 142.342 26.0464 142.517 26.9744Z" fill="white"/>
<path d="M58.7727 49H57.3636C57.2803 48.5947 57.1345 48.2386 56.9261 47.9318C56.7216 47.625 56.4716 47.3674 56.1761 47.1591C55.8845 46.947 55.5606 46.7879 55.2045 46.6818C54.8485 46.5758 54.4773 46.5227 54.0909 46.5227C53.3864 46.5227 52.7481 46.7008 52.1761 47.0568C51.608 47.4129 51.1553 47.9375 50.8182 48.6307C50.4848 49.3239 50.3182 50.1742 50.3182 51.1818C50.3182 52.1894 50.4848 53.0398 50.8182 53.733C51.1553 54.4261 51.608 54.9508 52.1761 55.3068C52.7481 55.6629 53.3864 55.8409 54.0909 55.8409C54.4773 55.8409 54.8485 55.7879 55.2045 55.6818C55.5606 55.5758 55.8845 55.4186 56.1761 55.2102C56.4716 54.9981 56.7216 54.7386 56.9261 54.4318C57.1345 54.1212 57.2803 53.7652 57.3636 53.3636H58.7727C58.6667 53.9583 58.4735 54.4905 58.1932 54.9602C57.9129 55.4299 57.5644 55.8295 57.1477 56.1591C56.7311 56.4848 56.2633 56.733 55.7443 56.9034C55.2292 57.0739 54.678 57.1591 54.0909 57.1591C53.0985 57.1591 52.2159 56.9167 51.4432 56.4318C50.6705 55.947 50.0625 55.2576 49.6193 54.3636C49.1761 53.4697 48.9545 52.4091 48.9545 51.1818C48.9545 49.9545 49.1761 48.8939 49.6193 48C50.0625 47.1061 50.6705 46.4167 51.4432 45.9318C52.2159 45.447 53.0985 45.2045 54.0909 45.2045C54.678 45.2045 55.2292 45.2898 55.7443 45.4602C56.2633 45.6307 56.7311 45.8807 57.1477 46.2102C57.5644 46.536 57.9129 46.9337 58.1932 47.4034C58.4735 47.8693 58.6667 48.4015 58.7727 49ZM61.2088 45.3636V57H59.8679V45.3636H61.2088ZM62.6648 57V48.2727H64.0057V57H62.6648ZM63.3466 46.8182C63.0852 46.8182 62.8598 46.7292 62.6705 46.5511C62.4848 46.3731 62.392 46.1591 62.392 45.9091C62.392 45.6591 62.4848 45.4451 62.6705 45.267C62.8598 45.089 63.0852 45 63.3466 45C63.608 45 63.8314 45.089 64.017 45.267C64.2064 45.4451 64.3011 45.6591 64.3011 45.9091C64.3011 46.1591 64.2064 46.3731 64.017 46.5511C63.8314 46.7292 63.608 46.8182 63.3466 46.8182ZM69.0071 57.1818C68.1889 57.1818 67.4844 56.9886 66.8935 56.6023C66.3026 56.2159 65.848 55.6837 65.5298 55.0057C65.2116 54.3277 65.0526 53.553 65.0526 52.6818C65.0526 51.7955 65.2154 51.0133 65.5412 50.3352C65.8707 49.6534 66.3291 49.1212 66.9162 48.7386C67.5071 48.3523 68.1965 48.1591 68.9844 48.1591C69.598 48.1591 70.151 48.2727 70.6435 48.5C71.1359 48.7273 71.5393 49.0455 71.8537 49.4545C72.1681 49.8636 72.3632 50.3409 72.4389 50.8864H71.098C70.9957 50.4886 70.7685 50.1364 70.4162 49.8295C70.0677 49.5189 69.598 49.3636 69.0071 49.3636C68.4844 49.3636 68.026 49.5 67.6321 49.7727C67.242 50.0417 66.937 50.4223 66.7173 50.9148C66.5014 51.4034 66.3935 51.9773 66.3935 52.6364C66.3935 53.3106 66.4995 53.8977 66.7116 54.3977C66.9276 54.8977 67.2306 55.286 67.6207 55.5625C68.0147 55.839 68.4768 55.9773 69.0071 55.9773C69.3556 55.9773 69.6719 55.9167 69.956 55.7955C70.2401 55.6742 70.4806 55.5 70.6776 55.2727C70.8745 55.0455 71.0147 54.7727 71.098 54.4545H72.4389C72.3632 54.9697 72.1757 55.4337 71.8764 55.8466C71.581 56.2557 71.1889 56.5814 70.7003 56.8239C70.2154 57.0625 69.651 57.1818 69.0071 57.1818ZM74.6491 53.8182L74.6264 52.1591H74.8991L78.7173 48.2727H80.3764L76.3082 52.3864H76.1946L74.6491 53.8182ZM73.3991 57V45.3636H74.7401V57H73.3991ZM78.9446 57L75.5355 52.6818L76.4901 51.75L80.6491 57H78.9446ZM88.3977 48.2727V49.4091H83.875V48.2727H88.3977ZM85.1932 46.1818H86.5341V54.5C86.5341 54.8788 86.589 55.1629 86.6989 55.3523C86.8125 55.5379 86.9564 55.6629 87.1307 55.7273C87.3087 55.7879 87.4962 55.8182 87.6932 55.8182C87.8409 55.8182 87.9621 55.8106 88.0568 55.7955C88.1515 55.7765 88.2273 55.7614 88.2841 55.75L88.5568 56.9545C88.4659 56.9886 88.339 57.0227 88.1761 57.0568C88.0133 57.0947 87.8068 57.1136 87.5568 57.1136C87.178 57.1136 86.8068 57.0322 86.4432 56.8693C86.0833 56.7064 85.7841 56.4583 85.5455 56.125C85.3106 55.7917 85.1932 55.3712 85.1932 54.8636V46.1818ZM92.8665 57.1818C92.0786 57.1818 91.3873 56.9943 90.7926 56.6193C90.2017 56.2443 89.7396 55.7197 89.4062 55.0455C89.0767 54.3712 88.9119 53.5833 88.9119 52.6818C88.9119 51.7727 89.0767 50.9792 89.4062 50.3011C89.7396 49.6231 90.2017 49.0966 90.7926 48.7216C91.3873 48.3466 92.0786 48.1591 92.8665 48.1591C93.6544 48.1591 94.3438 48.3466 94.9347 48.7216C95.5294 49.0966 95.9915 49.6231 96.321 50.3011C96.6544 50.9792 96.821 51.7727 96.821 52.6818C96.821 53.5833 96.6544 54.3712 96.321 55.0455C95.9915 55.7197 95.5294 56.2443 94.9347 56.6193C94.3438 56.9943 93.6544 57.1818 92.8665 57.1818ZM92.8665 55.9773C93.465 55.9773 93.9574 55.8239 94.3438 55.517C94.7301 55.2102 95.0161 54.8068 95.2017 54.3068C95.3873 53.8068 95.4801 53.2652 95.4801 52.6818C95.4801 52.0985 95.3873 51.5549 95.2017 51.0511C95.0161 50.5473 94.7301 50.1402 94.3438 49.8295C93.9574 49.5189 93.465 49.3636 92.8665 49.3636C92.268 49.3636 91.7756 49.5189 91.3892 49.8295C91.0028 50.1402 90.7169 50.5473 90.5312 51.0511C90.3456 51.5549 90.2528 52.0985 90.2528 52.6818C90.2528 53.2652 90.3456 53.8068 90.5312 54.3068C90.7169 54.8068 91.0028 55.2102 91.3892 55.517C91.7756 55.8239 92.268 55.9773 92.8665 55.9773ZM107.55 50.2273L106.345 50.5682C106.269 50.3674 106.158 50.1723 106.01 49.983C105.866 49.7898 105.669 49.6307 105.419 49.5057C105.169 49.3807 104.849 49.3182 104.459 49.3182C103.925 49.3182 103.48 49.4413 103.124 49.6875C102.771 49.9299 102.595 50.2386 102.595 50.6136C102.595 50.947 102.716 51.2102 102.959 51.4034C103.201 51.5966 103.58 51.7576 104.095 51.8864L105.391 52.2045C106.171 52.3939 106.752 52.6837 107.135 53.0739C107.518 53.4602 107.709 53.9583 107.709 54.5682C107.709 55.0682 107.565 55.5152 107.277 55.9091C106.993 56.303 106.595 56.6136 106.084 56.8409C105.572 57.0682 104.978 57.1818 104.3 57.1818C103.41 57.1818 102.673 56.9886 102.089 56.6023C101.506 56.2159 101.137 55.6515 100.982 54.9091L102.254 54.5909C102.375 55.0606 102.605 55.4129 102.942 55.6477C103.283 55.8826 103.728 56 104.277 56C104.902 56 105.398 55.8674 105.766 55.6023C106.137 55.3333 106.322 55.0114 106.322 54.6364C106.322 54.3333 106.216 54.0795 106.004 53.875C105.792 53.6667 105.466 53.5114 105.027 53.4091L103.572 53.0682C102.773 52.8788 102.186 52.5852 101.811 52.1875C101.44 51.786 101.254 51.2841 101.254 50.6818C101.254 50.1894 101.393 49.7538 101.669 49.375C101.949 48.9962 102.33 48.6989 102.811 48.483C103.296 48.267 103.845 48.1591 104.459 48.1591C105.322 48.1591 106 48.3485 106.493 48.7273C106.989 49.1061 107.341 49.6061 107.55 50.2273ZM112.386 57.1818C111.545 57.1818 110.82 56.9962 110.21 56.625C109.604 56.25 109.136 55.7273 108.807 55.0568C108.481 54.3826 108.318 53.5985 108.318 52.7045C108.318 51.8106 108.481 51.0227 108.807 50.3409C109.136 49.6553 109.595 49.1212 110.182 48.7386C110.773 48.3523 111.462 48.1591 112.25 48.1591C112.705 48.1591 113.153 48.2348 113.597 48.3864C114.04 48.5379 114.443 48.7841 114.807 49.125C115.17 49.4621 115.46 49.9091 115.676 50.4659C115.892 51.0227 116 51.7083 116 52.5227V53.0909H109.273V51.9318H114.636C114.636 51.4394 114.538 51 114.341 50.6136C114.148 50.2273 113.871 49.9223 113.511 49.6989C113.155 49.4754 112.735 49.3636 112.25 49.3636C111.716 49.3636 111.254 49.4962 110.864 49.7614C110.477 50.0227 110.18 50.3636 109.972 50.7841C109.763 51.2045 109.659 51.6553 109.659 52.1364V52.9091C109.659 53.5682 109.773 54.1269 110 54.5852C110.231 55.0398 110.551 55.3864 110.96 55.625C111.369 55.8598 111.845 55.9773 112.386 55.9773C112.739 55.9773 113.057 55.928 113.341 55.8295C113.629 55.7273 113.877 55.5758 114.085 55.375C114.294 55.1705 114.455 54.9167 114.568 54.6136L115.864 54.9773C115.727 55.4167 115.498 55.803 115.176 56.1364C114.854 56.4659 114.456 56.7235 113.983 56.9091C113.509 57.0909 112.977 57.1818 112.386 57.1818ZM120.699 57.1818C119.858 57.1818 119.133 56.9962 118.523 56.625C117.917 56.25 117.449 55.7273 117.119 55.0568C116.794 54.3826 116.631 53.5985 116.631 52.7045C116.631 51.8106 116.794 51.0227 117.119 50.3409C117.449 49.6553 117.907 49.1212 118.494 48.7386C119.085 48.3523 119.775 48.1591 120.562 48.1591C121.017 48.1591 121.466 48.2348 121.909 48.3864C122.352 48.5379 122.756 48.7841 123.119 49.125C123.483 49.4621 123.773 49.9091 123.989 50.4659C124.205 51.0227 124.312 51.7083 124.312 52.5227V53.0909H117.585V51.9318H122.949C122.949 51.4394 122.85 51 122.653 50.6136C122.46 50.2273 122.184 49.9223 121.824 49.6989C121.468 49.4754 121.047 49.3636 120.562 49.3636C120.028 49.3636 119.566 49.4962 119.176 49.7614C118.79 50.0227 118.492 50.3636 118.284 50.7841C118.076 51.2045 117.972 51.6553 117.972 52.1364V52.9091C117.972 53.5682 118.085 54.1269 118.312 54.5852C118.544 55.0398 118.864 55.3864 119.273 55.625C119.682 55.8598 120.157 55.9773 120.699 55.9773C121.051 55.9773 121.369 55.928 121.653 55.8295C121.941 55.7273 122.189 55.5758 122.398 55.375C122.606 55.1705 122.767 54.9167 122.881 54.6136L124.176 54.9773C124.04 55.4167 123.811 55.803 123.489 56.1364C123.167 56.4659 122.769 56.7235 122.295 56.9091C121.822 57.0909 121.29 57.1818 120.699 57.1818ZM129.716 60.2727C129.489 60.2727 129.286 60.2538 129.108 60.2159C128.93 60.1818 128.807 60.1477 128.739 60.1136L129.08 58.9318C129.405 59.0152 129.693 59.0455 129.943 59.0227C130.193 59 130.415 58.8883 130.608 58.6875C130.805 58.4905 130.985 58.1705 131.148 57.7273L131.398 57.0455L128.17 48.2727H129.625L132.034 55.2273H132.125L134.534 48.2727H135.989L132.284 58.2727C132.117 58.7235 131.911 59.0966 131.665 59.392C131.419 59.6913 131.133 59.9129 130.807 60.0568C130.485 60.2008 130.121 60.2727 129.716 60.2727ZM139.991 57.1818C139.204 57.1818 138.512 56.9943 137.918 56.6193C137.327 56.2443 136.865 55.7197 136.531 55.0455C136.202 54.3712 136.037 53.5833 136.037 52.6818C136.037 51.7727 136.202 50.9792 136.531 50.3011C136.865 49.6231 137.327 49.0966 137.918 48.7216C138.512 48.3466 139.204 48.1591 139.991 48.1591C140.779 48.1591 141.469 48.3466 142.06 48.7216C142.654 49.0966 143.116 49.6231 143.446 50.3011C143.779 50.9792 143.946 51.7727 143.946 52.6818C143.946 53.5833 143.779 54.3712 143.446 55.0455C143.116 55.7197 142.654 56.2443 142.06 56.6193C141.469 56.9943 140.779 57.1818 139.991 57.1818ZM139.991 55.9773C140.59 55.9773 141.082 55.8239 141.469 55.517C141.855 55.2102 142.141 54.8068 142.327 54.3068C142.512 53.8068 142.605 53.2652 142.605 52.6818C142.605 52.0985 142.512 51.5549 142.327 51.0511C142.141 50.5473 141.855 50.1402 141.469 49.8295C141.082 49.5189 140.59 49.3636 139.991 49.3636C139.393 49.3636 138.901 49.5189 138.514 49.8295C138.128 50.1402 137.842 50.5473 137.656 51.0511C137.471 51.5549 137.378 52.0985 137.378 52.6818C137.378 53.2652 137.471 53.8068 137.656 54.3068C137.842 54.8068 138.128 55.2102 138.514 55.517C138.901 55.8239 139.393 55.9773 139.991 55.9773ZM150.493 53.4318V48.2727H151.834V57H150.493V55.5227H150.402C150.197 55.9659 149.879 56.3428 149.447 56.6534C149.016 56.9602 148.47 57.1136 147.811 57.1136C147.266 57.1136 146.781 56.9943 146.357 56.7557C145.932 56.5133 145.599 56.1496 145.357 55.6648C145.114 55.1761 144.993 54.5606 144.993 53.8182V48.2727H146.334V53.7273C146.334 54.3636 146.512 54.8712 146.868 55.25C147.228 55.6288 147.686 55.8182 148.243 55.8182C148.576 55.8182 148.915 55.733 149.26 55.5625C149.608 55.392 149.9 55.1307 150.135 54.7784C150.374 54.4261 150.493 53.9773 150.493 53.4318ZM153.29 57V48.2727H154.585V49.5909H154.676C154.835 49.1591 155.123 48.8087 155.54 48.5398C155.956 48.2708 156.426 48.1364 156.949 48.1364C157.047 48.1364 157.17 48.1383 157.318 48.142C157.466 48.1458 157.578 48.1515 157.653 48.1591V49.5227C157.608 49.5114 157.504 49.4943 157.341 49.4716C157.182 49.4451 157.013 49.4318 156.835 49.4318C156.411 49.4318 156.032 49.5208 155.699 49.6989C155.369 49.8731 155.108 50.1155 154.915 50.4261C154.725 50.733 154.631 51.0833 154.631 51.4773V57H153.29ZM165.629 48.2727V49.4091H160.925V48.2727H165.629ZM162.334 57V47.0682C162.334 46.5682 162.451 46.1515 162.686 45.8182C162.921 45.4848 163.226 45.2348 163.601 45.0682C163.976 44.9015 164.372 44.8182 164.788 44.8182C165.118 44.8182 165.387 44.8447 165.595 44.8977C165.804 44.9508 165.959 45 166.061 45.0455L165.675 46.2045C165.607 46.1818 165.512 46.1534 165.391 46.1193C165.273 46.0852 165.118 46.0682 164.925 46.0682C164.482 46.0682 164.161 46.1799 163.964 46.4034C163.771 46.6269 163.675 46.9545 163.675 47.3864V57H162.334ZM166.509 57V48.2727H167.849V57H166.509ZM167.19 46.8182C166.929 46.8182 166.704 46.7292 166.514 46.5511C166.329 46.3731 166.236 46.1591 166.236 45.9091C166.236 45.6591 166.329 45.4451 166.514 45.267C166.704 45.089 166.929 45 167.19 45C167.452 45 167.675 45.089 167.861 45.267C168.05 45.4451 168.145 45.6591 168.145 45.9091C168.145 46.1591 168.05 46.3731 167.861 46.5511C167.675 46.7292 167.452 46.8182 167.19 46.8182ZM170.646 51.75V57H169.305V48.2727H170.601V49.6364H170.714C170.919 49.1932 171.23 48.8371 171.646 48.5682C172.063 48.2955 172.601 48.1591 173.26 48.1591C173.851 48.1591 174.368 48.2803 174.811 48.5227C175.254 48.7614 175.599 49.125 175.845 49.6136C176.091 50.0985 176.214 50.7121 176.214 51.4545V57H174.874V51.5455C174.874 50.8598 174.696 50.3258 174.339 49.9432C173.983 49.5568 173.495 49.3636 172.874 49.3636C172.446 49.3636 172.063 49.4564 171.726 49.642C171.393 49.8277 171.129 50.0985 170.936 50.4545C170.743 50.8106 170.646 51.2424 170.646 51.75ZM180.233 57.2045C179.68 57.2045 179.178 57.1004 178.727 56.892C178.277 56.6799 177.919 56.375 177.653 55.9773C177.388 55.5758 177.256 55.0909 177.256 54.5227C177.256 54.0227 177.354 53.6174 177.551 53.3068C177.748 52.9924 178.011 52.7462 178.341 52.5682C178.67 52.3902 179.034 52.2576 179.432 52.1705C179.833 52.0795 180.237 52.0076 180.642 51.9545C181.172 51.8864 181.602 51.8352 181.932 51.8011C182.265 51.7633 182.508 51.7008 182.659 51.6136C182.814 51.5265 182.892 51.375 182.892 51.1591V51.1136C182.892 50.553 182.739 50.1174 182.432 49.8068C182.129 49.4962 181.669 49.3409 181.051 49.3409C180.411 49.3409 179.909 49.4811 179.545 49.7614C179.182 50.0417 178.926 50.3409 178.778 50.6591L177.506 50.2045C177.733 49.6742 178.036 49.2614 178.415 48.9659C178.797 48.6667 179.214 48.4583 179.665 48.3409C180.119 48.2197 180.566 48.1591 181.006 48.1591C181.286 48.1591 181.608 48.1932 181.972 48.2614C182.339 48.3258 182.693 48.4602 183.034 48.6648C183.379 48.8693 183.665 49.178 183.892 49.5909C184.119 50.0038 184.233 50.5568 184.233 51.25V57H182.892V55.8182H182.824C182.733 56.0076 182.581 56.2102 182.369 56.4261C182.157 56.642 181.875 56.8258 181.523 56.9773C181.17 57.1288 180.741 57.2045 180.233 57.2045ZM180.438 56C180.968 56 181.415 55.8958 181.778 55.6875C182.146 55.4792 182.422 55.2102 182.608 54.8807C182.797 54.5511 182.892 54.2045 182.892 53.8409V52.6136C182.835 52.6818 182.71 52.7443 182.517 52.8011C182.328 52.8542 182.108 52.9015 181.858 52.9432C181.612 52.9811 181.371 53.0152 181.136 53.0455C180.905 53.072 180.718 53.0947 180.574 53.1136C180.225 53.1591 179.9 53.233 179.597 53.3352C179.297 53.4337 179.055 53.5833 178.869 53.7841C178.688 53.9811 178.597 54.25 178.597 54.5909C178.597 55.0568 178.769 55.4091 179.114 55.6477C179.462 55.8826 179.903 56 180.438 56ZM187.021 51.75V57H185.68V48.2727H186.976V49.6364H187.089C187.294 49.1932 187.605 48.8371 188.021 48.5682C188.438 48.2955 188.976 48.1591 189.635 48.1591C190.226 48.1591 190.743 48.2803 191.186 48.5227C191.629 48.7614 191.974 49.125 192.22 49.6136C192.466 50.0985 192.589 50.7121 192.589 51.4545V57H191.249V51.5455C191.249 50.8598 191.071 50.3258 190.714 49.9432C190.358 49.5568 189.87 49.3636 189.249 49.3636C188.821 49.3636 188.438 49.4564 188.101 49.642C187.768 49.8277 187.504 50.0985 187.311 50.4545C187.118 50.8106 187.021 51.2424 187.021 51.75ZM197.585 57.1818C196.767 57.1818 196.063 56.9886 195.472 56.6023C194.881 56.2159 194.426 55.6837 194.108 55.0057C193.79 54.3277 193.631 53.553 193.631 52.6818C193.631 51.7955 193.794 51.0133 194.119 50.3352C194.449 49.6534 194.907 49.1212 195.494 48.7386C196.085 48.3523 196.775 48.1591 197.562 48.1591C198.176 48.1591 198.729 48.2727 199.222 48.5C199.714 48.7273 200.117 49.0455 200.432 49.4545C200.746 49.8636 200.941 50.3409 201.017 50.8864H199.676C199.574 50.4886 199.347 50.1364 198.994 49.8295C198.646 49.5189 198.176 49.3636 197.585 49.3636C197.063 49.3636 196.604 49.5 196.21 49.7727C195.82 50.0417 195.515 50.4223 195.295 50.9148C195.08 51.4034 194.972 51.9773 194.972 52.6364C194.972 53.3106 195.078 53.8977 195.29 54.3977C195.506 54.8977 195.809 55.286 196.199 55.5625C196.593 55.839 197.055 55.9773 197.585 55.9773C197.934 55.9773 198.25 55.9167 198.534 55.7955C198.818 55.6742 199.059 55.5 199.256 55.2727C199.453 55.0455 199.593 54.7727 199.676 54.4545H201.017C200.941 54.9697 200.754 55.4337 200.455 55.8466C200.159 56.2557 199.767 56.5814 199.278 56.8239C198.794 57.0625 198.229 57.1818 197.585 57.1818ZM201.977 57V48.2727H203.318V57H201.977ZM202.659 46.8182C202.398 46.8182 202.172 46.7292 201.983 46.5511C201.797 46.3731 201.705 46.1591 201.705 45.9091C201.705 45.6591 201.797 45.4451 201.983 45.267C202.172 45.089 202.398 45 202.659 45C202.92 45 203.144 45.089 203.33 45.267C203.519 45.4451 203.614 45.6591 203.614 45.9091C203.614 46.1591 203.519 46.3731 203.33 46.5511C203.144 46.7292 202.92 46.8182 202.659 46.8182ZM207.342 57.2045C206.789 57.2045 206.287 57.1004 205.837 56.892C205.386 56.6799 205.028 56.375 204.763 55.9773C204.498 55.5758 204.365 55.0909 204.365 54.5227C204.365 54.0227 204.464 53.6174 204.661 53.3068C204.857 52.9924 205.121 52.7462 205.45 52.5682C205.78 52.3902 206.143 52.2576 206.541 52.1705C206.943 52.0795 207.346 52.0076 207.751 51.9545C208.282 51.8864 208.712 51.8352 209.041 51.8011C209.375 51.7633 209.617 51.7008 209.768 51.6136C209.924 51.5265 210.001 51.375 210.001 51.1591V51.1136C210.001 50.553 209.848 50.1174 209.541 49.8068C209.238 49.4962 208.778 49.3409 208.161 49.3409C207.52 49.3409 207.018 49.4811 206.655 49.7614C206.291 50.0417 206.036 50.3409 205.888 50.6591L204.615 50.2045C204.842 49.6742 205.145 49.2614 205.524 48.9659C205.907 48.6667 206.323 48.4583 206.774 48.3409C207.229 48.2197 207.676 48.1591 208.115 48.1591C208.395 48.1591 208.717 48.1932 209.081 48.2614C209.448 48.3258 209.803 48.4602 210.143 48.6648C210.488 48.8693 210.774 49.178 211.001 49.5909C211.229 50.0038 211.342 50.5568 211.342 51.25V57H210.001V55.8182H209.933C209.842 56.0076 209.691 56.2102 209.479 56.4261C209.267 56.642 208.984 56.8258 208.632 56.9773C208.28 57.1288 207.85 57.2045 207.342 57.2045ZM207.547 56C208.077 56 208.524 55.8958 208.888 55.6875C209.255 55.4792 209.532 55.2102 209.717 54.8807C209.907 54.5511 210.001 54.2045 210.001 53.8409V52.6136C209.945 52.6818 209.82 52.7443 209.626 52.8011C209.437 52.8542 209.217 52.9015 208.967 52.9432C208.721 52.9811 208.481 53.0152 208.246 53.0455C208.015 53.072 207.827 53.0947 207.683 53.1136C207.335 53.1591 207.009 53.233 206.706 53.3352C206.407 53.4337 206.164 53.5833 205.979 53.7841C205.797 53.9811 205.706 54.25 205.706 54.5909C205.706 55.0568 205.878 55.4091 206.223 55.6477C206.571 55.8826 207.013 56 207.547 56ZM214.131 45.3636V57H212.79V45.3636H214.131ZM225.632 48.2727C225.564 47.697 225.287 47.25 224.803 46.9318C224.318 46.6136 223.723 46.4545 223.018 46.4545C222.503 46.4545 222.053 46.5379 221.666 46.7045C221.284 46.8712 220.984 47.1004 220.768 47.392C220.556 47.6837 220.45 48.0152 220.45 48.3864C220.45 48.697 220.524 48.964 220.672 49.1875C220.823 49.4072 221.017 49.5909 221.251 49.7386C221.486 49.8826 221.732 50.0019 221.99 50.0966C222.248 50.1875 222.484 50.2614 222.7 50.3182L223.882 50.6364C224.185 50.7159 224.522 50.8258 224.893 50.9659C225.268 51.1061 225.626 51.2973 225.967 51.5398C226.312 51.7784 226.596 52.0852 226.82 52.4602C227.043 52.8352 227.155 53.2955 227.155 53.8409C227.155 54.4697 226.99 55.0379 226.661 55.5455C226.335 56.053 225.857 56.4564 225.229 56.7557C224.604 57.0549 223.844 57.2045 222.95 57.2045C222.117 57.2045 221.395 57.0701 220.786 56.8011C220.179 56.5322 219.702 56.1572 219.354 55.6761C219.009 55.1951 218.814 54.6364 218.768 54H220.223C220.261 54.4394 220.409 54.803 220.666 55.0909C220.928 55.375 221.257 55.5871 221.655 55.7273C222.056 55.8636 222.488 55.9318 222.95 55.9318C223.488 55.9318 223.971 55.8447 224.399 55.6705C224.827 55.4924 225.166 55.2462 225.416 54.9318C225.666 54.6136 225.791 54.2424 225.791 53.8182C225.791 53.4318 225.683 53.1174 225.467 52.875C225.251 52.6326 224.967 52.4356 224.615 52.2841C224.263 52.1326 223.882 52 223.473 51.8864L222.041 51.4773C221.132 51.2159 220.412 50.8428 219.882 50.358C219.352 49.8731 219.087 49.2386 219.087 48.4545C219.087 47.803 219.263 47.2348 219.615 46.75C219.971 46.2614 220.448 45.8826 221.047 45.6136C221.649 45.3409 222.321 45.2045 223.064 45.2045C223.814 45.2045 224.481 45.339 225.064 45.608C225.647 45.8731 226.109 46.2367 226.45 46.6989C226.795 47.161 226.977 47.6856 226.996 48.2727H225.632ZM228.472 45.3636H230.153L234.108 55.0227H234.244L238.199 45.3636H239.881V57H238.562V48.1591H238.449L234.812 57H233.54L229.903 48.1591H229.79V57H228.472V45.3636ZM248.07 48.2727C248.001 47.697 247.725 47.25 247.24 46.9318C246.755 46.6136 246.161 46.4545 245.456 46.4545C244.941 46.4545 244.49 46.5379 244.104 46.7045C243.721 46.8712 243.422 47.1004 243.206 47.392C242.994 47.6837 242.888 48.0152 242.888 48.3864C242.888 48.697 242.962 48.964 243.109 49.1875C243.261 49.4072 243.454 49.5909 243.689 49.7386C243.924 49.8826 244.17 50.0019 244.428 50.0966C244.685 50.1875 244.922 50.2614 245.138 50.3182L246.32 50.6364C246.623 50.7159 246.96 50.8258 247.331 50.9659C247.706 51.1061 248.064 51.2973 248.405 51.5398C248.75 51.7784 249.034 52.0852 249.257 52.4602C249.481 52.8352 249.592 53.2955 249.592 53.8409C249.592 54.4697 249.428 55.0379 249.098 55.5455C248.772 56.053 248.295 56.4564 247.666 56.7557C247.041 57.0549 246.282 57.2045 245.388 57.2045C244.554 57.2045 243.833 57.0701 243.223 56.8011C242.617 56.5322 242.14 56.1572 241.791 55.6761C241.446 55.1951 241.251 54.6364 241.206 54H242.661C242.698 54.4394 242.846 54.803 243.104 55.0909C243.365 55.375 243.695 55.5871 244.092 55.7273C244.494 55.8636 244.926 55.9318 245.388 55.9318C245.926 55.9318 246.409 55.8447 246.837 55.6705C247.265 55.4924 247.604 55.2462 247.854 54.9318C248.104 54.6136 248.229 54.2424 248.229 53.8182C248.229 53.4318 248.121 53.1174 247.905 52.875C247.689 52.6326 247.405 52.4356 247.053 52.2841C246.7 52.1326 246.32 52 245.911 51.8864L244.479 51.4773C243.57 51.2159 242.85 50.8428 242.32 50.358C241.789 49.8731 241.524 49.2386 241.524 48.4545C241.524 47.803 241.7 47.2348 242.053 46.75C242.409 46.2614 242.886 45.8826 243.484 45.6136C244.087 45.3409 244.759 45.2045 245.501 45.2045C246.251 45.2045 246.918 45.339 247.501 45.608C248.085 45.8731 248.547 46.2367 248.888 46.6989C249.232 47.161 249.414 47.6856 249.433 48.2727H248.07ZM255.568 51.75V57H254.227V48.2727H255.523V49.6364H255.636C255.841 49.1932 256.152 48.8371 256.568 48.5682C256.985 48.2955 257.523 48.1591 258.182 48.1591C258.773 48.1591 259.29 48.2803 259.733 48.5227C260.176 48.7614 260.521 49.125 260.767 49.6136C261.013 50.0985 261.136 50.7121 261.136 51.4545V57H259.795V51.5455C259.795 50.8598 259.617 50.3258 259.261 49.9432C258.905 49.5568 258.417 49.3636 257.795 49.3636C257.367 49.3636 256.985 49.4564 256.648 49.642C256.314 49.8277 256.051 50.0985 255.858 50.4545C255.665 50.8106 255.568 51.2424 255.568 51.75ZM266.132 57.1818C265.344 57.1818 264.653 56.9943 264.058 56.6193C263.467 56.2443 263.005 55.7197 262.672 55.0455C262.342 54.3712 262.178 53.5833 262.178 52.6818C262.178 51.7727 262.342 50.9792 262.672 50.3011C263.005 49.6231 263.467 49.0966 264.058 48.7216C264.653 48.3466 265.344 48.1591 266.132 48.1591C266.92 48.1591 267.609 48.3466 268.2 48.7216C268.795 49.0966 269.257 49.6231 269.587 50.3011C269.92 50.9792 270.087 51.7727 270.087 52.6818C270.087 53.5833 269.92 54.3712 269.587 55.0455C269.257 55.7197 268.795 56.2443 268.2 56.6193C267.609 56.9943 266.92 57.1818 266.132 57.1818ZM266.132 55.9773C266.731 55.9773 267.223 55.8239 267.609 55.517C267.996 55.2102 268.282 54.8068 268.467 54.3068C268.653 53.8068 268.746 53.2652 268.746 52.6818C268.746 52.0985 268.653 51.5549 268.467 51.0511C268.282 50.5473 267.996 50.1402 267.609 49.8295C267.223 49.5189 266.731 49.3636 266.132 49.3636C265.534 49.3636 265.041 49.5189 264.655 49.8295C264.268 50.1402 263.982 50.5473 263.797 51.0511C263.611 51.5549 263.518 52.0985 263.518 52.6818C263.518 53.2652 263.611 53.8068 263.797 54.3068C263.982 54.8068 264.268 55.2102 264.655 55.517C265.041 55.8239 265.534 55.9773 266.132 55.9773ZM274.929 48.2727V49.4091H270.406V48.2727H274.929ZM271.724 46.1818H273.065V54.5C273.065 54.8788 273.12 55.1629 273.23 55.3523C273.344 55.5379 273.488 55.6629 273.662 55.7273C273.84 55.7879 274.027 55.8182 274.224 55.8182C274.372 55.8182 274.493 55.8106 274.588 55.7955C274.683 55.7765 274.759 55.7614 274.815 55.75L275.088 56.9545C274.997 56.9886 274.87 57.0227 274.707 57.0568C274.545 57.0947 274.338 57.1136 274.088 57.1136C273.709 57.1136 273.338 57.0322 272.974 56.8693C272.615 56.7064 272.315 56.4583 272.077 56.125C271.842 55.7917 271.724 55.3712 271.724 54.8636V46.1818ZM275.946 57V48.2727H277.287V57H275.946ZM276.628 46.8182C276.366 46.8182 276.141 46.7292 275.952 46.5511C275.766 46.3731 275.673 46.1591 275.673 45.9091C275.673 45.6591 275.766 45.4451 275.952 45.267C276.141 45.089 276.366 45 276.628 45C276.889 45 277.113 45.089 277.298 45.267C277.488 45.4451 277.582 45.6591 277.582 45.9091C277.582 46.1591 277.488 46.3731 277.298 46.5511C277.113 46.7292 276.889 46.8182 276.628 46.8182ZM282.629 48.2727V49.4091H277.925V48.2727H282.629ZM279.334 57V47.0682C279.334 46.5682 279.451 46.1515 279.686 45.8182C279.921 45.4848 280.226 45.2348 280.601 45.0682C280.976 44.9015 281.372 44.8182 281.788 44.8182C282.118 44.8182 282.387 44.8447 282.595 44.8977C282.804 44.9508 282.959 45 283.061 45.0455L282.675 46.2045C282.607 46.1818 282.512 46.1534 282.391 46.1193C282.273 46.0852 282.118 46.0682 281.925 46.0682C281.482 46.0682 281.161 46.1799 280.964 46.4034C280.771 46.6269 280.675 46.9545 280.675 47.3864V57H279.334ZM283.509 57V48.2727H284.849V57H283.509ZM284.19 46.8182C283.929 46.8182 283.704 46.7292 283.514 46.5511C283.329 46.3731 283.236 46.1591 283.236 45.9091C283.236 45.6591 283.329 45.4451 283.514 45.267C283.704 45.089 283.929 45 284.19 45C284.452 45 284.675 45.089 284.861 45.267C285.05 45.4451 285.145 45.6591 285.145 45.9091C285.145 46.1591 285.05 46.3731 284.861 46.5511C284.675 46.7292 284.452 46.8182 284.19 46.8182ZM289.851 57.1818C289.033 57.1818 288.328 56.9886 287.737 56.6023C287.146 56.2159 286.692 55.6837 286.374 55.0057C286.055 54.3277 285.896 53.553 285.896 52.6818C285.896 51.7955 286.059 51.0133 286.385 50.3352C286.714 49.6534 287.173 49.1212 287.76 48.7386C288.351 48.3523 289.04 48.1591 289.828 48.1591C290.442 48.1591 290.995 48.2727 291.487 48.5C291.98 48.7273 292.383 49.0455 292.697 49.4545C293.012 49.8636 293.207 50.3409 293.283 50.8864H291.942C291.839 50.4886 291.612 50.1364 291.26 49.8295C290.911 49.5189 290.442 49.3636 289.851 49.3636C289.328 49.3636 288.87 49.5 288.476 49.7727C288.086 50.0417 287.781 50.4223 287.561 50.9148C287.345 51.4034 287.237 51.9773 287.237 52.6364C287.237 53.3106 287.343 53.8977 287.555 54.3977C287.771 54.8977 288.074 55.286 288.464 55.5625C288.858 55.839 289.321 55.9773 289.851 55.9773C290.199 55.9773 290.516 55.9167 290.8 55.7955C291.084 55.6742 291.324 55.5 291.521 55.2727C291.718 55.0455 291.858 54.7727 291.942 54.4545H293.283C293.207 54.9697 293.019 55.4337 292.72 55.8466C292.425 56.2557 292.033 56.5814 291.544 56.8239C291.059 57.0625 290.495 57.1818 289.851 57.1818ZM296.811 57.2045C296.258 57.2045 295.756 57.1004 295.305 56.892C294.855 56.6799 294.497 56.375 294.232 55.9773C293.966 55.5758 293.834 55.0909 293.834 54.5227C293.834 54.0227 293.932 53.6174 294.129 53.3068C294.326 52.9924 294.589 52.7462 294.919 52.5682C295.249 52.3902 295.612 52.2576 296.01 52.1705C296.411 52.0795 296.815 52.0076 297.22 51.9545C297.75 51.8864 298.18 51.8352 298.51 51.8011C298.843 51.7633 299.086 51.7008 299.237 51.6136C299.393 51.5265 299.47 51.375 299.47 51.1591V51.1136C299.47 50.553 299.317 50.1174 299.01 49.8068C298.707 49.4962 298.247 49.3409 297.629 49.3409C296.989 49.3409 296.487 49.4811 296.124 49.7614C295.76 50.0417 295.504 50.3409 295.357 50.6591L294.084 50.2045C294.311 49.6742 294.614 49.2614 294.993 48.9659C295.375 48.6667 295.792 48.4583 296.243 48.3409C296.697 48.2197 297.144 48.1591 297.584 48.1591C297.864 48.1591 298.186 48.1932 298.55 48.2614C298.917 48.3258 299.271 48.4602 299.612 48.6648C299.957 48.8693 300.243 49.178 300.47 49.5909C300.697 50.0038 300.811 50.5568 300.811 51.25V57H299.47V55.8182H299.402C299.311 56.0076 299.16 56.2102 298.947 56.4261C298.735 56.642 298.453 56.8258 298.101 56.9773C297.749 57.1288 297.319 57.2045 296.811 57.2045ZM297.016 56C297.546 56 297.993 55.8958 298.357 55.6875C298.724 55.4792 299 55.2102 299.186 54.8807C299.375 54.5511 299.47 54.2045 299.47 53.8409V52.6136C299.413 52.6818 299.288 52.7443 299.095 52.8011C298.906 52.8542 298.686 52.9015 298.436 52.9432C298.19 52.9811 297.949 53.0152 297.714 53.0455C297.483 53.072 297.296 53.0947 297.152 53.1136C296.804 53.1591 296.478 53.233 296.175 53.3352C295.875 53.4337 295.633 53.5833 295.447 53.7841C295.266 53.9811 295.175 54.25 295.175 54.5909C295.175 55.0568 295.347 55.4091 295.692 55.6477C296.04 55.8826 296.482 56 297.016 56ZM306.054 48.2727V49.4091H301.531V48.2727H306.054ZM302.849 46.1818H304.19V54.5C304.19 54.8788 304.245 55.1629 304.355 55.3523C304.469 55.5379 304.613 55.6629 304.787 55.7273C304.965 55.7879 305.152 55.8182 305.349 55.8182C305.497 55.8182 305.618 55.8106 305.713 55.7955C305.808 55.7765 305.884 55.7614 305.94 55.75L306.213 56.9545C306.122 56.9886 305.995 57.0227 305.832 57.0568C305.67 57.0947 305.463 57.1136 305.213 57.1136C304.834 57.1136 304.463 57.0322 304.099 56.8693C303.74 56.7064 303.44 56.4583 303.202 56.125C302.967 55.7917 302.849 55.3712 302.849 54.8636V46.1818ZM307.071 57V48.2727H308.412V57H307.071ZM307.753 46.8182C307.491 46.8182 307.266 46.7292 307.077 46.5511C306.891 46.3731 306.798 46.1591 306.798 45.9091C306.798 45.6591 306.891 45.4451 307.077 45.267C307.266 45.089 307.491 45 307.753 45C308.014 45 308.238 45.089 308.423 45.267C308.613 45.4451 308.707 45.6591 308.707 45.9091C308.707 46.1591 308.613 46.3731 308.423 46.5511C308.238 46.7292 308.014 46.8182 307.753 46.8182ZM313.413 57.1818C312.625 57.1818 311.934 56.9943 311.339 56.6193C310.749 56.2443 310.286 55.7197 309.953 55.0455C309.624 54.3712 309.459 53.5833 309.459 52.6818C309.459 51.7727 309.624 50.9792 309.953 50.3011C310.286 49.6231 310.749 49.0966 311.339 48.7216C311.934 48.3466 312.625 48.1591 313.413 48.1591C314.201 48.1591 314.891 48.3466 315.482 48.7216C316.076 49.0966 316.538 49.6231 316.868 50.3011C317.201 50.9792 317.368 51.7727 317.368 52.6818C317.368 53.5833 317.201 54.3712 316.868 55.0455C316.538 55.7197 316.076 56.2443 315.482 56.6193C314.891 56.9943 314.201 57.1818 313.413 57.1818ZM313.413 55.9773C314.012 55.9773 314.504 55.8239 314.891 55.517C315.277 55.2102 315.563 54.8068 315.749 54.3068C315.934 53.8068 316.027 53.2652 316.027 52.6818C316.027 52.0985 315.934 51.5549 315.749 51.0511C315.563 50.5473 315.277 50.1402 314.891 49.8295C314.504 49.5189 314.012 49.3636 313.413 49.3636C312.815 49.3636 312.322 49.5189 311.936 49.8295C311.55 50.1402 311.264 50.5473 311.078 51.0511C310.893 51.5549 310.8 52.0985 310.8 52.6818C310.8 53.2652 310.893 53.8068 311.078 54.3068C311.264 54.8068 311.55 55.2102 311.936 55.517C312.322 55.8239 312.815 55.9773 313.413 55.9773ZM319.756 51.75V57H318.415V48.2727H319.71V49.6364H319.824C320.028 49.1932 320.339 48.8371 320.756 48.5682C321.172 48.2955 321.71 48.1591 322.369 48.1591C322.96 48.1591 323.477 48.2803 323.92 48.5227C324.364 48.7614 324.708 49.125 324.955 49.6136C325.201 50.0985 325.324 50.7121 325.324 51.4545V57H323.983V51.5455C323.983 50.8598 323.805 50.3258 323.449 49.9432C323.093 49.5568 322.604 49.3636 321.983 49.3636C321.555 49.3636 321.172 49.4564 320.835 49.642C320.502 49.8277 320.239 50.0985 320.045 50.4545C319.852 50.8106 319.756 51.2424 319.756 51.75ZM332.956 50.2273L331.751 50.5682C331.676 50.3674 331.564 50.1723 331.416 49.983C331.272 49.7898 331.075 49.6307 330.825 49.5057C330.575 49.3807 330.255 49.3182 329.865 49.3182C329.331 49.3182 328.886 49.4413 328.53 49.6875C328.178 49.9299 328.001 50.2386 328.001 50.6136C328.001 50.947 328.123 51.2102 328.365 51.4034C328.607 51.5966 328.986 51.7576 329.501 51.8864L330.797 52.2045C331.577 52.3939 332.159 52.6837 332.541 53.0739C332.924 53.4602 333.115 53.9583 333.115 54.5682C333.115 55.0682 332.971 55.5152 332.683 55.9091C332.399 56.303 332.001 56.6136 331.49 56.8409C330.979 57.0682 330.384 57.1818 329.706 57.1818C328.816 57.1818 328.079 56.9886 327.496 56.6023C326.912 56.2159 326.543 55.6515 326.388 54.9091L327.661 54.5909C327.782 55.0606 328.011 55.4129 328.348 55.6477C328.689 55.8826 329.134 56 329.683 56C330.308 56 330.804 55.8674 331.172 55.6023C331.543 55.3333 331.729 55.0114 331.729 54.6364C331.729 54.3333 331.623 54.0795 331.411 53.875C331.198 53.6667 330.873 53.5114 330.433 53.4091L328.979 53.0682C328.179 52.8788 327.592 52.5852 327.217 52.1875C326.846 51.786 326.661 51.2841 326.661 50.6818C326.661 50.1894 326.799 49.7538 327.075 49.375C327.356 48.9962 327.736 48.6989 328.217 48.483C328.702 48.267 329.251 48.1591 329.865 48.1591C330.729 48.1591 331.407 48.3485 331.899 48.7273C332.395 49.1061 332.748 49.6061 332.956 50.2273Z" fill="#C4C4C4"/>
</svg>
